<?xml version="1.0" standalone="no"?>
<!DOCTYPE svg PUBLIC "-//W3C//DTD SVG 20010904//EN"
 "http://www.w3.org/TR/2001/REC-SVG-20010904/DTD/svg10.dtd">
<svg version="1.0" xmlns="http://www.w3.org/2000/svg"
 width="512.000000pt" height="512.000000pt" viewBox="0 0 512.000000 512.000000"
 preserveAspectRatio="xMidYMid meet">
<metadata>
Created by potrace 1.11, written by Peter Selinger 2001-2013
</metadata>
<g transform="translate(0.000000,512.000000) scale(0.100000,-0.100000)"
fill="#000000" stroke="none">
<path d="M2728 4393 c7 -3 16 -2 19 1 4 3 -2 6 -13 5 -11 0 -14 -3 -6 -6z"/>
<path d="M2475 4372 c-11 -8 -11 -25 0 -59 12 -37 24 -26 15 14 -5 20 -7 41
-4 45 6 10 2 10 -11 0z"/>
<path d="M2538 4340 c5 -52 17 -52 17 0 0 22 -5 40 -10 40 -6 0 -9 -17 -7 -40z"/>
<path d="M2620 4340 c0 -22 5 -40 10 -40 6 0 10 18 10 40 0 22 -4 40 -10 40
-5 0 -10 -18 -10 -40z"/>
<path d="M2683 4335 c-1 -33 1 -43 11 -39 8 3 11 15 8 30 -2 13 1 31 8 39 10
12 9 15 -6 15 -15 0 -19 -9 -21 -45z"/>
<path d="M2729 4343 l-24 -28 24 20 24 20 -5 -32 c-3 -22 0 -34 9 -38 8 -2 11
0 8 5 -3 5 -2 26 4 45 12 44 -5 47 -40 8z"/>
<path d="M2408 4320 c3 -24 9 -40 17 -40 10 0 11 9 3 40 -6 22 -13 40 -17 40
-4 0 -5 -18 -3 -40z"/>
<path d="M2338 4325 c3 -18 0 -25 -12 -25 -9 0 -19 7 -22 15 -4 8 -14 15 -23
14 -10 0 -11 -2 -3 -6 6 -2 12 -11 12 -18 0 -21 17 -27 40 -15 19 10 25 4 21
-22 0 -4 6 -5 14 -2 11 5 12 11 5 24 -6 10 -10 28 -10 39 0 12 -6 21 -14 21
-9 0 -12 -8 -8 -25z"/>
<path d="M2848 4312 c-13 -34 -14 -42 -2 -46 9 -4 14 2 14 17 1 21 1 21 15 3
8 -10 16 -24 18 -30 2 -6 7 -8 11 -5 7 6 -12 59 -25 69 -3 3 -8 11 -10 19 -3
7 -12 -5 -21 -27z"/>
<path d="M2584 4321 c0 -15 3 -17 13 -9 7 6 10 14 7 19 -9 15 -20 10 -20 -10z"/>
<path d="M2908 4323 c7 -3 16 -2 19 1 4 3 -2 6 -13 5 -11 0 -14 -3 -6 -6z"/>
<path d="M2214 4285 c-4 -14 -4 -29 0 -32 3 -4 6 5 6 18 1 22 2 22 18 -9 23
-43 36 -30 15 14 -20 41 -30 43 -39 9z"/>
<path d="M2956 4294 c-38 -37 1 -87 50 -65 25 11 34 54 14 66 -6 4 -10 -7 -10
-25 0 -33 -23 -51 -42 -32 -15 15 -1 60 20 65 15 4 15 5 0 6 -9 0 -24 -6 -32
-15z"/>
<path d="M2168 4284 c-8 -7 23 -74 34 -74 11 0 11 1 -10 44 -10 20 -21 34 -24
30z"/>
<path d="M3067 4249 c-3 -11 -1 -16 5 -13 6 4 7 -8 2 -31 -4 -25 -3 -36 4 -32
15 10 20 86 6 91 -7 3 -14 -4 -17 -15z"/>
<path d="M2100 4249 c-10 -6 -11 -9 -2 -9 6 0 12 -5 12 -11 0 -6 7 -17 15 -26
8 -8 12 -19 9 -25 -4 -7 -2 -8 4 -4 16 10 15 21 -6 55 -13 22 -22 27 -32 20z"/>
<path d="M3133 4213 c-3 -10 -12 -25 -20 -35 -9 -9 -10 -18 -5 -22 8 -5 52 54
52 70 0 12 -21 2 -27 -13z"/>
<path d="M2062 4185 c24 -36 46 -49 29 -17 -7 13 -6 23 2 31 9 10 8 11 -4 6
-10 -4 -20 -2 -24 4 -3 6 -10 11 -16 11 -5 0 1 -16 13 -35z"/>
<path d="M3045 4209 c-4 -6 -5 -12 -2 -15 2 -3 7 2 10 11 7 17 1 20 -8 4z"/>
<path d="M2565 4164 c-21 -18 -41 -34 -45 -34 -4 0 -13 -7 -20 -15 -10 -13
-10 -19 4 -33 25 -28 19 -50 -18 -67 -19 -9 -49 -31 -67 -49 -30 -29 -42 -34
-96 -38 -48 -3 -69 -10 -88 -28 -34 -32 -34 -77 0 -86 29 -7 56 11 48 32 -3 8
-13 14 -22 14 -12 1 -11 5 8 20 36 31 106 27 162 -8 24 -16 50 -36 58 -45 12
-15 10 -17 -18 -17 -24 0 -30 -3 -24 -14 12 -19 121 -106 134 -106 8 0 10 21
7 64 -2 36 -1 63 3 60 4 -2 10 10 12 28 l4 33 1 -33 c1 -18 6 -31 10 -28 4 2
6 -24 4 -60 -3 -43 -1 -64 7 -64 13 0 122 87 134 106 6 11 0 14 -24 14 -28 0
-30 2 -18 17 8 9 34 29 58 45 56 35 126 39 162 8 19 -15 20 -19 8 -20 -21 0
-31 -24 -16 -39 15 -15 42 -14 57 3 36 45 -30 106 -115 106 -44 0 -55 4 -81
31 -16 17 -46 40 -66 50 -41 21 -47 42 -22 71 14 14 14 20 4 33 -7 8 -19 15
-26 15 -8 0 -14 4 -14 9 0 5 -15 20 -34 34 l-33 26 -38 -35z m54 -50 c-9 -11
-15 -12 -25 -3 -11 9 -12 15 -3 25 9 11 15 12 25 3 11 -9 12 -15 3 -25z m-81
-55 c-3 -8 -7 -3 -11 10 -4 17 -3 21 5 13 5 -5 8 -16 6 -23z m19 9 c-3 -8 -6
-5 -6 6 -1 11 2 17 5 13 3 -3 4 -12 1 -19z m68 -3 c0 -13 -8 -21 -22 -23 -17
-3 -23 2 -23 16 0 10 3 22 7 26 13 13 38 1 38 -19z m32 3 c-3 -8 -6 -5 -6 6
-1 11 2 17 5 13 3 -3 4 -12 1 -19z m26 2 c-3 -12 -8 -19 -11 -16 -5 6 5 36 12
36 2 0 2 -9 -1 -20z m-60 -47 c-7 -2 -21 -2 -30 0 -10 3 -4 5 12 5 17 0 24 -2
18 -5z m55 -34 c12 -5 22 -11 22 -14 0 -2 -12 0 -26 5 -33 13 -106 13 -141 -1
-17 -6 -24 -6 -18 0 28 27 103 32 163 10z m3 -33 c19 -8 43 -23 53 -34 17 -20
17 -21 -23 -57 -24 -22 -48 -57 -60 -88 -16 -41 -20 -46 -20 -26 -1 15 13 53
29 84 34 65 34 65 18 65 -7 0 -24 12 -40 27 -25 24 -30 25 -53 13 -14 -7 -25
-19 -25 -27 0 -7 -9 -13 -20 -13 -11 0 -20 -2 -20 -4 0 -2 14 -30 30 -61 17
-31 30 -69 29 -84 0 -22 -3 -19 -16 18 -8 24 -35 64 -59 89 -42 44 -43 46 -26
65 40 45 137 61 203 33z m-155 -189 c2 -14 -1 -15 -17 -6 -11 5 -17 15 -13 20
9 14 27 6 30 -14z m189 14 c3 -6 -3 -15 -14 -20 -18 -10 -21 -3 -12 27 2 6 20
1 26 -7z"/>
<path d="M3192 4195 c4 -4 -4 -23 -19 -41 -14 -19 -21 -34 -15 -34 6 0 20 14
32 30 19 26 24 29 38 18 12 -10 14 -10 8 -1 -4 7 -17 18 -29 24 -12 7 -19 8
-15 4z"/>
<path d="M1990 4175 c0 -8 4 -15 8 -15 5 0 15 -11 22 -25 7 -13 17 -22 21 -19
9 5 -31 74 -43 74 -5 0 -8 -7 -8 -15z"/>
<path d="M1943 4149 c-7 -7 -3 -19 16 -40 33 -37 41 -37 40 4 -1 25 -3 27 -6
8 l-5 -23 -16 23 c-9 13 -16 27 -14 32 3 10 -2 9 -15 -4z"/>
<path d="M3227 4124 c-15 -18 -24 -35 -19 -38 4 -2 20 10 35 29 35 44 21 52
-16 9z"/>
<path d="M3286 4082 l-19 -27 24 22 c12 12 21 24 18 27 -2 2 -13 -8 -23 -22z"/>
<path d="M1864 4079 c-14 -15 -15 -22 -5 -32 10 -9 11 -9 6 4 -12 30 13 30 38
-1 14 -17 28 -27 30 -22 3 4 -8 21 -23 39 -28 31 -29 31 -46 12z"/>
<path d="M3315 4050 c-38 -39 -29 -46 12 -10 18 16 29 31 24 34 -4 3 -21 -8
-36 -24z"/>
<path d="M1809 4019 c-16 -30 3 -69 34 -69 24 0 47 17 47 34 0 6 -5 5 -12 -2
-17 -17 -55 -15 -62 4 -8 20 1 34 20 34 8 0 12 5 9 10 -10 16 -23 12 -36 -11z"/>
<path d="M3342 4008 c-16 -16 -15 -43 2 -57 11 -9 12 -6 8 14 -5 29 4 32 29 9
20 -18 39 -11 39 14 -1 15 -2 15 -11 -1 -8 -14 -14 -16 -25 -6 -19 15 -18 27
4 32 11 3 8 5 -8 6 -15 0 -31 -4 -38 -11z"/>
<path d="M1746 3941 c-4 -5 2 -7 11 -5 25 7 58 -19 50 -40 -9 -22 -33 -20 -57
4 -15 15 -20 16 -20 6 0 -21 38 -45 61 -39 24 7 36 48 19 68 -14 16 -56 20
-64 6z"/>
<path d="M3417 3926 c-37 -23 -41 -44 -4 -25 18 10 19 9 14 -20 -4 -17 -2 -31
3 -31 5 0 10 10 12 23 2 18 9 22 33 20 22 -2 26 0 15 7 -8 5 -24 10 -35 10
-19 1 -19 1 -2 14 32 24 3 25 -36 2z"/>
<path d="M1686 3850 c-11 -19 -13 -30 -6 -30 7 0 25 -9 40 -20 24 -17 29 -18
34 -5 3 8 2 14 -2 13 -10 -2 -62 24 -62 32 0 3 5 11 12 18 6 6 9 14 7 17 -3 2
-13 -9 -23 -25z"/>
<path d="M2369 3843 c-6 -16 -9 -50 -6 -77 3 -38 2 -45 -6 -30 -6 11 -11 43
-11 71 0 36 -3 48 -9 37 -5 -8 -7 -39 -5 -68 l3 -52 -50 0 c-68 0 -121 -33
-147 -91 -22 -49 -24 -50 -153 -29 -51 9 -82 10 -86 4 -4 -6 -9 -56 -13 -111
-7 -98 2 -223 24 -337 6 -29 8 -55 6 -57 -2 -3 -13 0 -24 6 -12 6 -32 11 -46
11 -17 0 -36 12 -53 32 -16 18 -45 48 -67 68 -21 19 -44 47 -52 62 -16 31 -19
84 -4 93 6 3 10 2 10 -3 0 -11 45 -32 69 -32 34 0 71 39 71 73 0 77 -74 133
-162 125 -126 -13 -176 -140 -108 -274 16 -32 30 -59 30 -60 0 0 -17 -6 -38
-12 -124 -37 -193 -168 -148 -277 16 -38 61 -70 112 -79 21 -4 35 -14 39 -27
8 -26 62 -59 95 -59 14 0 44 9 67 20 43 19 49 29 56 95 l3 30 13 -30 c21 -51
6 -109 -45 -166 -24 -27 -44 -57 -44 -67 0 -9 8 -1 18 18 21 42 68 75 135 95
91 27 168 14 213 -36 17 -19 17 -21 -9 -42 -28 -23 -54 -77 -37 -77 6 0 10 6
10 14 0 17 61 72 89 81 12 3 19 11 15 16 -3 6 0 10 7 8 26 -3 36 1 63 26 27
25 30 23 27 -30 -1 -18 0 -18 9 3 6 14 6 31 0 48 -6 14 -10 33 -10 42 1 14 5
12 21 -8 14 -16 19 -35 17 -56 -2 -18 0 -30 4 -28 11 7 10 62 -2 84 -15 27
-47 43 -66 32 -15 -8 -15 -10 0 -15 21 -8 20 -40 -2 -60 -27 -24 -74 -21 -100
6 -40 43 -20 106 42 133 17 7 24 13 16 14 -9 0 -25 -7 -37 -15 -20 -14 -23
-14 -31 2 -57 106 -116 463 -95 573 l8 45 70 -8 c69 -9 70 -9 97 -53 28 -45
107 -104 140 -104 13 0 17 -7 14 -27 -2 -16 -1 -22 1 -15 5 14 44 32 72 32 9
0 26 -7 37 -16 18 -15 18 -15 -3 -5 -29 14 -45 14 -67 -2 -16 -12 -14 -13 16
-9 25 3 38 -1 48 -15 12 -15 12 -16 0 -5 -17 14 -34 16 -25 2 3 -5 1 -19 -5
-30 -23 -43 39 -70 75 -33 21 20 13 68 -15 98 l-20 21 35 13 c19 7 49 24 65
38 28 23 30 23 30 5 0 -11 -9 -22 -20 -25 -12 -3 -20 -14 -20 -27 0 -13 8 -24
20 -27 24 -6 26 -19 5 -27 -8 -3 -15 -10 -15 -16 0 -5 7 -10 15 -10 24 0 22
-346 -2 -372 -15 -17 -15 -19 0 -36 12 -13 17 -37 17 -80 0 -34 -2 -62 -4 -62
-13 0 -98 55 -105 68 -9 15 -11 15 -30 -2 -12 -11 -21 -30 -21 -43 0 -12 -6
-23 -13 -23 -8 0 -29 -17 -48 -39 l-35 -38 30 -35 c17 -20 39 -38 49 -41 9 -4
17 -15 17 -26 0 -11 10 -27 22 -35 28 -20 38 -20 38 -1 0 8 23 25 50 38 l50
24 0 -41 c0 -47 13 -66 45 -66 32 0 45 19 45 66 l0 41 50 -24 c28 -13 50 -30
50 -38 0 -19 10 -19 38 1 12 8 22 24 22 35 0 11 8 23 18 26 9 4 31 22 47 41
l31 35 -35 38 c-19 22 -40 39 -48 39 -7 0 -13 11 -13 24 0 32 -40 63 -52 42
-7 -12 -92 -66 -104 -66 -10 0 -2 123 8 140 10 16 10 24 0 40 -8 14 -12 71
-12 187 0 140 3 169 16 185 16 16 16 18 0 24 -22 8 -20 21 4 27 12 3 20 14 20
27 0 13 -8 24 -20 27 -11 3 -20 14 -20 25 0 18 2 18 30 -5 16 -14 45 -31 64
-38 l35 -13 -25 -29 c-40 -48 -26 -107 25 -107 38 0 56 22 41 50 -6 11 -8 25
-5 30 9 14 -8 12 -25 -2 -12 -11 -12 -10 0 5 10 14 23 18 48 15 30 -4 32 -3
16 9 -22 16 -38 16 -67 2 -21 -10 -21 -10 -3 5 29 23 63 19 93 -10 l26 -26 -6
31 c-5 25 -3 31 11 31 33 0 112 59 140 104 26 43 29 44 97 54 39 5 72 7 75 5
11 -10 1 -244 -14 -333 -16 -92 -58 -247 -78 -283 -8 -16 -11 -16 -31 -2 -12
8 -28 15 -37 15 -8 -1 -1 -7 16 -14 63 -28 83 -94 41 -134 -13 -13 -36 -22
-54 -22 -50 0 -84 57 -47 78 15 8 15 10 -1 15 -38 15 -76 -29 -74 -85 1 -26 3
-28 6 -8 6 39 24 80 35 80 10 0 9 -10 -7 -70 -5 -21 -5 -22 5 -7 10 16 13 15
47 -7 20 -14 43 -22 52 -19 9 4 13 2 8 -2 -4 -5 10 -18 30 -29 21 -12 48 -37
60 -55 20 -30 23 -31 23 -11 0 12 -14 35 -31 51 -30 28 -31 30 -14 49 26 28
78 50 122 50 91 0 197 -53 226 -111 10 -20 17 -27 17 -17 0 10 -20 40 -45 67
-47 53 -62 98 -50 150 10 45 25 48 25 6 0 -20 4 -44 10 -54 11 -21 78 -51 113
-51 30 0 84 34 91 58 5 13 22 24 53 31 104 27 142 130 87 239 -27 54 -90 105
-145 117 -16 4 -29 8 -29 10 0 1 12 24 26 49 35 63 43 157 17 205 -25 48 -63
73 -121 79 -88 8 -162 -48 -162 -125 0 -35 38 -73 72 -73 22 0 60 18 70 34 12
18 21 -22 13 -61 -5 -26 -22 -52 -58 -88 -29 -28 -62 -63 -74 -78 -14 -17 -33
-27 -49 -27 -14 0 -34 -5 -46 -11 -11 -6 -22 -9 -24 -6 -3 3 2 42 10 88 23
126 28 224 18 327 -5 51 -11 94 -13 96 -2 2 -42 -3 -89 -10 -131 -20 -136 -19
-144 17 -12 62 -104 117 -172 103 l-29 -6 3 49 c2 26 0 58 -5 71 -7 17 -9 9
-9 -32 0 -31 -4 -60 -9 -65 -7 -7 -10 11 -10 49 0 32 -5 64 -11 70 -9 9 -10 4
-7 -17 l4 -28 -16 25 c-10 15 -14 18 -11 7 15 -47 18 -69 12 -91 -9 -35 -35
-58 -57 -51 -15 5 -19 1 -19 -15 0 -11 7 -23 15 -26 8 -4 15 -17 15 -30 0 -19
5 -24 24 -24 13 0 26 -7 30 -15 7 -19 40 -20 55 -2 8 10 7 17 -2 26 -9 10 -8
15 7 27 40 29 96 13 121 -36 57 -109 -72 -233 -210 -201 -27 6 -58 13 -67 14
-10 2 -21 7 -25 12 -5 4 -2 5 6 0 10 -5 12 -4 7 4 -4 6 -11 9 -16 6 -5 -3 -16
7 -24 22 -8 15 -15 24 -16 20 0 -14 22 -51 49 -81 21 -23 22 -27 6 -18 -47 24
-84 94 -85 161 0 27 -3 31 -13 22 -10 -8 -17 -7 -25 1 -9 9 -12 4 -12 -22 -1
-68 -38 -138 -85 -162 -16 -9 -15 -5 6 18 27 30 49 66 49 81 -1 4 -7 -3 -15
-17 -7 -14 -15 -23 -17 -20 -2 3 -19 -5 -38 -17 -95 -59 -227 -26 -275 68 -38
72 5 159 79 159 33 0 61 -27 45 -46 -25 -30 26 -48 55 -19 8 8 24 15 35 15 15
0 21 6 21 24 0 13 7 26 15 30 8 3 15 15 15 26 0 16 -4 20 -19 15 -22 -7 -48
16 -57 51 -6 22 -3 44 12 91 3 11 -1 8 -11 -7 l-16 -25 4 28 c2 15 2 27 0 27
-2 0 -8 -12 -14 -27z m-84 -162 c-82 -14 -124 -62 -126 -141 -1 -42 -1 -43
-10 -15 -23 79 48 166 136 164 l40 -2 -40 -6z m706 -6 c45 -24 69 -71 68 -130
l-2 -50 -6 51 c-10 83 -45 121 -126 135 l-40 6 38 2 c21 0 51 -6 68 -14z
m-941 -129 c58 -9 76 -16 78 -30 3 -15 -2 -17 -45 -11 -26 3 -60 9 -75 11 -25
5 -27 3 -34 -42 -16 -108 15 -345 68 -509 37 -114 37 -117 21 -122 -7 -3 -23
32 -42 92 -64 200 -99 418 -86 548 8 87 -2 82 115 63z m1225 -66 c7 -78 4
-117 -16 -255 -21 -136 -92 -385 -110 -385 -19 0 -16 23 11 104 56 165 91 409
75 526 l-7 51 -42 -6 c-22 -3 -56 -9 -74 -12 -29 -5 -33 -3 -30 13 2 15 18 21
73 30 122 20 112 25 120 -66z m-1530 34 c34 -16 65 -65 65 -102 0 -52 -86 -73
-115 -28 -12 18 -13 30 -6 50 9 23 8 26 -16 32 -14 4 -38 3 -52 -2 -29 -10
-60 -65 -60 -104 1 -20 3 -19 11 10 14 51 45 80 82 79 28 -2 28 -2 6 -6 -14
-3 -32 -11 -42 -20 -17 -15 -32 -57 -17 -47 5 3 9 12 9 19 0 15 30 35 52 35 7
-1 2 -8 -12 -16 -14 -8 -18 -13 -8 -10 24 7 29 -4 13 -28 -31 -43 -13 -85 78
-185 107 -116 154 -229 136 -324 -19 -103 -54 -136 -61 -59 -5 47 -38 112 -58
112 -5 0 -6 -16 -3 -34 9 -55 -3 -82 -43 -101 -40 -19 -92 -14 -131 11 -27 17
-30 34 -5 34 35 1 102 40 122 72 15 24 20 44 16 71 -4 40 -39 87 -63 87 -7 0
-13 7 -13 17 0 14 -2 14 -20 -2 -19 -18 -20 -17 -20 6 -1 24 -1 24 -16 -4 -16
-29 -38 -29 -27 0 4 11 3 14 -5 9 -7 -4 -12 -25 -12 -47 0 -24 -4 -38 -10 -34
-13 8 -13 -5 0 -25 8 -13 10 -12 10 3 0 10 12 29 26 44 20 20 31 24 57 19 50
-10 67 -32 67 -88 0 -41 -5 -54 -28 -78 -36 -35 -91 -47 -152 -31 -55 14 -86
47 -95 101 -18 105 22 179 117 220 43 18 58 21 81 12 l28 -11 -31 35 c-96 110
-84 261 25 310 40 18 80 17 120 -2z m1865 -13 c67 -49 82 -148 36 -239 -14
-27 -37 -59 -52 -71 -29 -23 -26 -28 5 -9 15 9 29 9 62 -2 65 -22 102 -51 127
-100 19 -37 23 -56 19 -103 -6 -73 -25 -101 -82 -122 -81 -32 -163 -5 -191 61
-43 102 80 184 136 91 l19 -31 11 28 c14 37 13 52 -5 86 -21 41 -28 38 -8 -4
11 -24 13 -42 7 -62 l-8 -29 -3 35 c-6 54 -14 70 -23 40 l-6 -25 -17 30 c-16
29 -16 29 -17 6 0 -23 -1 -24 -20 -6 -18 16 -20 16 -20 2 0 -10 -6 -17 -13
-17 -24 0 -59 -47 -63 -87 -4 -27 1 -47 16 -71 20 -32 87 -71 123 -72 42 0 0
-41 -56 -54 -39 -9 -104 11 -118 36 -6 11 -9 41 -6 65 5 49 -5 52 -36 11 -11
-15 -22 -49 -25 -78 -5 -59 -19 -61 -46 -6 -31 63 -27 157 11 231 36 69 101
160 132 181 25 18 71 94 71 118 0 10 -5 27 -12 39 -15 29 -17 57 -4 57 22 0
38 -18 46 -51 l8 -34 1 31 c1 35 -21 60 -59 67 -22 4 -21 4 6 6 35 1 56 -17
78 -69 8 -19 15 -29 16 -22 0 22 -30 84 -48 98 -18 14 -51 18 -76 8 -12 -4
-13 -11 -5 -31 7 -19 6 -32 -6 -49 -29 -45 -115 -24 -115 28 0 36 31 86 63
102 39 20 111 14 147 -13z m-1685 -425 c17 -14 40 -42 51 -63 20 -42 25 -139
9 -188 -9 -29 -9 -27 -15 25 l-7 55 -1 -47 c-1 -26 -7 -50 -13 -53 -7 -5 -8 6
-5 32 l6 38 -11 -35 c-18 -58 -31 -61 -26 -5 3 28 3 41 0 30 -10 -46 -25 -85
-33 -85 -5 0 -4 15 1 32 14 50 11 118 -8 179 -9 30 -16 60 -14 67 1 6 -4 12
-11 13 -7 1 -2 5 12 9 l25 8 -27 1 c-15 1 -30 6 -34 13 -13 21 66 1 101 -26z
m1460 24 c-3 -5 -19 -10 -34 -10 -16 0 -39 -9 -52 -21 l-24 -21 25 16 c13 9
36 16 50 16 25 -1 25 -1 -5 -16 -16 -8 -23 -12 -13 -10 26 7 27 -2 7 -55 -21
-53 -25 -151 -9 -193 12 -32 -3 -35 -18 -3 -10 20 -11 20 -11 2 -1 -26 -17 -8
-30 35 l-11 35 6 -38 c3 -26 2 -37 -5 -32 -6 3 -12 27 -13 53 l-1 47 -7 -55
c-6 -52 -6 -54 -15 -25 -6 17 -10 60 -10 97 0 58 4 72 30 109 17 23 46 50 65
60 37 20 85 26 75 9z m-1346 -352 c1 -4 -12 0 -28 10 -16 9 -27 22 -25 29 14
48 16 48 34 8 10 -22 19 -43 19 -47z m1183 49 c3 -18 -2 -28 -24 -40 -32 -19
-35 -11 -11 37 18 38 28 39 35 3z m-712 -83 c0 -7 -60 19 -70 31 -6 7 7 4 30
-7 22 -11 40 -22 40 -24z m261 32 c-7 -8 -26 -19 -43 -25 -37 -13 -32 -6 14
19 42 23 43 23 29 6z m-275 -48 c4 -7 3 -8 -4 -4 -6 4 -22 2 -34 -4 -22 -11
-22 -10 -4 4 24 19 32 20 42 4z m260 -4 c18 -14 18 -15 -4 -4 -12 6 -28 8 -34
4 -7 -4 -8 -3 -4 4 10 16 18 15 42 -4z m-333 -76 c-14 -16 -17 -16 -38 0 l-23
17 21 23 21 23 18 -23 c15 -21 15 -24 1 -40z m404 1 c-21 -17 -23 -17 -40 0
-18 18 -18 19 -1 40 l18 21 23 -21 22 -22 -22 -18z m-308 37 c9 -11 10 -20 1
-36 -21 -39 -83 -7 -67 34 8 20 50 21 66 2z m236 -6 c14 -43 -44 -67 -68 -28
-8 12 -7 21 2 32 19 23 58 20 66 -4z m-258 -75 c10 3 8 0 -5 -6 -19 -10 -26
-10 -40 5 -16 17 -16 18 5 7 12 -6 30 -9 40 -6z m263 0 c-7 -8 -20 -15 -29
-15 -11 1 -8 5 9 15 32 18 35 18 20 0z m-250 -25 c-8 -5 -22 -9 -30 -9 -10 0
-8 3 5 9 27 12 43 12 25 0z m215 0 c13 -6 15 -9 5 -9 -8 0 -22 4 -30 9 -18 12
-2 12 25 0z"/>
<path d="M1720 3492 c27 -13 36 -25 41 -52 l6 -35 2 36 c1 41 -23 69 -60 69
-21 0 -20 -2 11 -18z"/>
<path d="M1510 3081 c-5 -11 -10 -30 -9 -43 1 -18 3 -17 8 8 4 17 11 36 15 42
4 7 5 12 2 12 -3 0 -10 -9 -16 -19z"/>
<path d="M1721 2885 c0 -11 -8 -31 -17 -43 -8 -12 -11 -22 -5 -22 16 0 33 38
28 63 -4 20 -4 20 -6 2z"/>
<path d="M3456 3494 c-9 -8 -15 -30 -15 -47 l1 -32 7 30 c4 21 17 35 41 47 34
17 34 17 8 18 -15 0 -34 -7 -42 -16z"/>
<path d="M3565 3400 c3 -5 8 -10 11 -10 2 0 4 5 4 10 0 6 -5 10 -11 10 -5 0
-7 -4 -4 -10z"/>
<path d="M3481 2875 c-1 -30 14 -55 32 -55 5 0 4 6 -2 14 -7 8 -16 27 -21 43
l-8 28 -1 -30z"/>
<path d="M3292 2860 c0 -19 2 -27 5 -17 2 9 2 25 0 35 -3 9 -5 1 -5 -18z"/>
<path d="M3462 3838 c-17 -17 -15 -43 5 -59 15 -13 15 -12 5 8 -10 17 -9 25 4
37 22 22 43 20 54 -6 5 -14 9 -17 9 -7 1 21 -19 39 -44 39 -12 0 -26 -5 -33
-12z"/>
<path d="M2552 3655 c-16 -34 -15 -45 3 -45 8 0 24 -6 35 -12 15 -10 22 -10
32 0 6 6 20 12 30 12 22 0 23 18 2 48 -23 33 -87 31 -102 -3z"/>
<path d="M2227 2880 c39 -23 65 -69 74 -130 l6 -45 2 38 c2 61 -61 157 -103
157 -6 0 3 -9 21 -20z"/>
<path d="M2962 2873 c-15 -16 -19 -21 -7 -12 11 9 29 21 40 27 11 6 14 12 8
12 -7 0 -25 -12 -41 -27z"/>
<path d="M2138 2864 c-38 -20 -36 -39 2 -19 16 8 44 15 62 15 25 0 29 3 18 10
-21 14 -50 12 -82 -6z"/>
<path d="M2990 2870 c-11 -7 -6 -10 21 -10 19 0 44 -7 55 -15 24 -18 35 -19
28 -1 -11 29 -75 45 -104 26z"/>
<path d="M2910 2804 c-6 -14 -9 -42 -9 -62 1 -32 2 -31 9 14 4 29 11 57 14 63
4 6 5 11 1 11 -3 0 -10 -12 -15 -26z"/>
<path d="M1847 2684 c-21 -20 -27 -36 -26 -58 2 -17 -2 -40 -9 -51 -10 -17
-13 -18 -22 -5 -9 13 -10 13 -10 0 1 -8 7 -23 14 -33 14 -17 15 -17 21 5 27
88 135 69 135 -23 0 -47 -34 -78 -96 -88 l-49 -9 43 -1 c84 -2 30 -51 -57 -51
-20 0 -50 9 -67 19 -58 35 -79 126 -35 150 8 5 12 13 8 18 -15 14 -47 -37 -47
-74 0 -92 105 -151 203 -114 24 9 25 8 31 -41 8 -60 43 -101 102 -117 26 -8
46 -22 59 -44 27 -43 132 -96 206 -104 67 -7 131 12 209 61 l54 34 44 -34 c47
-36 48 -36 102 7 l36 27 53 -34 c113 -71 203 -80 314 -31 50 23 117 78 117 97
0 5 19 14 42 20 58 16 96 60 104 120 6 47 7 48 31 39 13 -5 42 -9 65 -9 87 0
145 57 135 132 -5 41 -30 78 -44 65 -3 -4 2 -13 12 -21 24 -17 24 -73 0 -110
-34 -51 -104 -69 -174 -45 -46 16 -40 39 12 40 l42 2 -47 6 c-63 9 -98 42 -98
92 0 92 119 109 132 19 l3 -25 17 25 c9 14 19 39 22 55 l6 30 -11 -30 c-16
-41 -17 -41 -33 -20 -8 12 -12 32 -9 50 4 24 -1 36 -23 59 -26 25 -34 28 -82
24 -29 -3 -58 -10 -65 -17 -9 -10 -6 -10 16 -2 69 26 137 -1 137 -54 0 -31
-25 -33 -27 -4 -2 28 -11 36 -48 43 l-30 6 27 -10 c25 -11 44 -37 33 -48 -3
-3 -16 0 -29 7 -13 8 -30 11 -38 8 -7 -3 -3 -6 10 -6 28 -1 28 -6 -3 -43 -37
-44 -34 -91 10 -135 31 -31 35 -41 35 -85 0 -62 -21 -108 -59 -131 -41 -24
-52 -22 -46 11 5 20 1 17 -13 -13 -44 -93 -151 -155 -267 -155 -57 0 -137 24
-155 46 -10 12 -8 12 19 3 17 -6 36 -9 43 -6 7 3 4 6 -7 6 -11 1 -26 5 -33 10
-8 4 19 6 60 3 87 -5 157 19 204 71 l29 32 -30 -26 c-40 -35 -84 -57 -132 -65
-45 -7 -149 12 -159 28 -5 8 -1 9 12 3 10 -4 46 -9 79 -11 l60 -3 -58 8 c-32
5 -64 14 -70 21 -10 10 -8 11 8 6 44 -16 75 -18 110 -6 39 13 105 65 105 82 0
6 -10 -2 -22 -17 -28 -36 -76 -55 -135 -54 -47 2 -47 2 -13 9 l35 7 -37 2
c-47 1 -61 21 -15 21 43 0 82 30 97 75 11 34 30 48 30 23 0 -7 5 -5 11 5 8 14
14 16 25 6 11 -9 14 -7 14 11 0 17 4 21 20 17 17 -4 18 -2 9 14 -6 13 -6 19 0
19 6 0 17 -12 25 -27 10 -19 15 -22 16 -11 0 9 -12 30 -26 47 -14 17 -23 31
-19 31 19 0 48 -25 61 -53 l15 -32 -6 30 c-6 34 -47 75 -74 75 -14 0 -16 -7
-13 -37 5 -43 -15 -63 -63 -63 -42 0 -63 17 -80 65 -9 26 -14 33 -15 18 0 -23
-223 -243 -246 -243 -19 0 -244 220 -245 239 0 9 -9 -2 -19 -25 -19 -43 -35
-54 -79 -54 -48 0 -75 35 -60 78 7 18 5 22 -11 22 -31 0 -70 -41 -75 -80 l-5
-35 10 32 c6 18 20 39 32 48 36 24 42 17 14 -16 -14 -17 -26 -38 -26 -47 0
-12 4 -10 13 7 6 14 18 26 25 29 11 3 12 0 3 -16 -9 -17 -8 -19 9 -15 16 4 20
0 20 -18 0 -17 3 -20 12 -11 9 9 14 7 24 -6 8 -10 13 -12 14 -4 0 25 19 11 30
-23 15 -45 54 -75 97 -75 46 0 32 -20 -15 -21 l-37 -2 35 -7 c34 -7 34 -7 -13
-9 -59 -1 -107 18 -135 54 -12 15 -22 24 -22 19 1 -20 42 -56 86 -75 45 -21
80 -21 129 -3 16 5 18 4 8 -6 -6 -7 -38 -16 -70 -21 l-58 -8 60 3 c33 2 69 7
79 11 12 5 17 5 13 -2 -3 -5 -31 -15 -61 -23 -86 -20 -163 -1 -231 59 -26 22
-25 21 4 -11 45 -49 112 -72 196 -66 35 2 61 0 59 -4 -3 -4 -15 -8 -27 -9 -12
0 -16 -3 -9 -6 7 -3 26 0 43 6 27 9 29 9 19 -3 -19 -23 -99 -46 -161 -46 -80
0 -155 30 -206 82 -53 56 -65 81 -73 153 -7 56 -7 57 -9 15 0 -25 3 -60 8 -78
11 -37 3 -40 -39 -16 -41 25 -60 65 -60 127 0 50 3 58 35 90 44 44 47 91 10
135 -31 37 -31 42 -2 43 12 0 16 3 9 6 -8 3 -25 0 -38 -8 -13 -7 -26 -10 -29
-7 -11 11 8 37 33 47 25 9 25 9 5 10 -26 1 -63 -31 -63 -54 0 -8 -4 -15 -10
-15 -18 0 -11 49 10 70 22 22 72 26 117 9 22 -8 25 -8 16 2 -7 7 -36 14 -65
17 -48 4 -56 1 -81 -24z m719 -451 l41 -32 59 51 c32 28 89 80 125 116 55 53
67 61 73 46 8 -20 -40 -74 -173 -190 l-83 -74 -32 23 c-17 12 -77 67 -134 122
-80 77 -102 104 -97 118 6 15 22 4 94 -65 47 -46 104 -97 127 -115z m-179 31
c-12 -12 -64 17 -76 42 -25 55 -11 59 36 12 26 -26 44 -50 40 -54z m513 47
c-11 -28 -46 -51 -78 -51 -11 0 0 17 33 50 51 51 66 52 45 1z"/>
<path d="M2276 2672 l-19 -27 24 22 c12 12 21 24 18 27 -2 2 -13 -8 -23 -22z"/>
<path d="M2910 2694 c0 -5 7 -18 15 -28 8 -11 15 -16 15 -10 0 5 -7 18 -15 28
-8 11 -15 16 -15 10z"/>
<path d="M1785 2659 c-4 -6 -5 -12 -2 -15 2 -3 7 2 10 11 7 17 1 20 -8 4z"/>
<path d="M2220 2621 c-14 -9 -43 -23 -65 -29 -23 -6 -54 -26 -70 -43 l-30 -32
41 32 c68 53 154 54 216 3 l33 -27 -16 25 c-9 14 -34 31 -55 39 -50 19 -49 18
-34 36 16 19 11 19 -20 -4z"/>
<path d="M2963 2629 c26 -15 21 -25 -22 -38 -41 -12 -81 -52 -81 -80 0 -9 8
-2 16 16 35 71 160 83 237 22 l42 -32 -30 32 c-18 20 -49 37 -81 47 -29 8 -58
21 -64 29 -7 8 -18 15 -24 15 -6 0 -3 -5 7 -11z"/>
<path d="M1772 2610 c0 -14 2 -19 5 -12 2 6 2 18 0 25 -3 6 -5 1 -5 -13z"/>
<path d="M1681 2594 c0 -11 3 -14 6 -6 3 7 2 16 -1 19 -3 4 -6 -2 -5 -13z"/>
<path d="M3521 2594 c0 -11 3 -14 6 -6 3 7 2 16 -1 19 -3 4 -6 -2 -5 -13z"/>
<path d="M1852 2558 c-7 -7 -12 -16 -12 -22 0 -6 5 -5 12 2 20 20 58 14 68
-10 8 -22 9 -22 9 -2 1 26 -17 44 -44 44 -12 0 -26 -5 -33 -12z"/>
<path d="M2215 2560 c3 -5 14 -10 24 -10 10 0 30 -11 45 -25 30 -28 34 -69 9
-98 -17 -19 -17 -20 3 -9 51 27 31 112 -31 138 -40 16 -59 18 -50 4z"/>
<path d="M2943 2555 c-61 -26 -79 -111 -29 -137 20 -11 20 -10 4 9 -25 28 -22
70 7 98 23 24 38 28 95 27 l25 -1 -25 8 c-35 12 -41 12 -77 -4z"/>
<path d="M3292 2558 c-7 -7 -11 -23 -11 -37 2 -24 2 -24 6 -3 6 32 35 45 61
26 12 -8 22 -11 22 -7 0 16 -24 33 -45 33 -12 0 -26 -5 -33 -12z"/>
<path d="M2178 2553 c7 -3 16 -2 19 1 4 3 -2 6 -13 5 -11 0 -14 -3 -6 -6z"/>
<path d="M3213 2325 c0 -27 2 -38 4 -22 2 15 2 37 0 50 -2 12 -4 0 -4 -28z"/>
<path d="M3588 1943 c-24 -6 -23 -15 6 -42 46 -43 138 -34 166 18 8 16 5 20
-16 25 -18 5 -32 2 -45 -10 -19 -17 -69 -13 -69 6 0 10 -12 11 -42 3z"/>
<path d="M1432 1839 c-88 -44 -126 -157 -84 -251 43 -99 168 -144 270 -98 34
15 47 29 63 66 17 38 19 48 8 55 -23 14 -49 10 -49 -7 0 -29 -65 -84 -99 -84
-78 0 -121 53 -121 148 0 67 26 118 73 140 55 27 121 -10 115 -65 -4 -36 -39
-44 -61 -13 l-14 21 -16 -25 c-15 -22 -15 -25 2 -40 49 -44 129 -25 150 36 19
55 -19 168 -44 128 -4 -6 -15 -6 -31 0 -43 17 -116 11 -162 -11z"/>
<path d="M1762 1840 c-63 -39 -66 -108 -5 -131 36 -13 54 -8 64 19 7 19 5 22
-14 22 -28 0 -47 18 -40 36 6 15 32 18 82 8 l31 -6 0 -126 c0 -123 -1 -127
-27 -154 l-27 -28 84 0 83 0 -21 23 c-20 21 -22 34 -22 145 l0 122 29 0 c33 0
86 39 94 70 4 15 0 20 -14 20 -10 0 -19 -4 -19 -10 0 -18 -45 -21 -110 -6 -87
21 -129 20 -168 -4z"/>
<path d="M2224 1831 c16 -17 15 -23 -11 -106 -32 -99 -50 -119 -82 -90 -26 22
-36 15 -27 -20 4 -15 17 -30 32 -35 22 -9 23 -12 13 -32 -6 -13 -21 -33 -32
-45 l-20 -23 73 0 73 0 -22 23 c-18 20 -20 29 -12 50 12 32 19 36 74 43 37 5
48 3 66 -15 25 -25 27 -58 4 -83 -15 -17 -13 -18 68 -18 l84 0 -26 23 c-19 16
-41 62 -78 166 -48 136 -50 145 -35 163 17 17 14 18 -71 18 -85 0 -88 -1 -71
-19z m93 -124 l20 -64 -43 1 c-24 1 -44 5 -44 10 0 18 34 116 40 116 3 0 15
-29 27 -63z"/>
<path d="M2538 1827 c20 -22 22 -33 22 -159 0 -122 -2 -138 -21 -162 l-20 -26
82 0 83 0 -27 28 c-28 29 -28 29 -25 163 l3 134 34 3 c62 6 100 -6 116 -38 18
-35 19 -69 1 -92 -17 -23 -72 -24 -80 -2 -8 21 -8 20 10 39 15 15 15 18 1 32
-14 14 -18 14 -33 3 -43 -37 -37 -106 12 -129 63 -28 141 -3 169 55 19 40 19
56 1 99 -26 63 -62 75 -215 75 l-134 0 21 -23z"/>
<path d="M2923 1822 c26 -28 27 -31 27 -157 0 -127 0 -129 -27 -158 l-28 -29
140 4 c106 3 147 7 171 20 34 19 54 55 54 99 0 68 -37 93 -152 104 l-78 7 0
46 c0 33 6 52 22 69 l21 23 -88 0 -89 0 27 -28z m238 -183 c14 -14 19 -30 17
-52 -4 -39 -35 -57 -100 -57 l-48 0 0 65 0 65 55 0 c42 0 60 -5 76 -21z"/>
<path d="M3293 1832 c14 -16 17 -43 17 -162 0 -134 -2 -145 -22 -167 l-21 -23
88 0 89 0 -27 28 c-27 28 -27 30 -27 162 0 124 2 135 22 157 l21 23 -78 0
c-75 0 -77 -1 -62 -18z"/>
<path d="M3483 1832 c14 -16 17 -43 17 -162 0 -134 -2 -145 -22 -167 l-21 -23
88 0 88 0 -23 25 c-27 29 -26 33 74 140 l65 70 1 -91 c0 -77 -3 -93 -20 -112
-11 -12 -20 -24 -20 -27 0 -3 37 -5 82 -5 l81 0 -21 23 c-20 22 -22 33 -22
167 0 119 3 146 17 162 15 17 13 18 -61 18 -70 0 -76 -1 -62 -16 9 -8 16 -20
16 -25 0 -10 -138 -161 -152 -167 -5 -2 -8 35 -8 83 0 78 2 89 23 106 22 18
22 18 -57 19 -76 0 -78 -1 -63 -18z"/>
<path d="M1850 1229 c-30 -4 -102 -7 -159 -8 l-104 -1 21 -23 c20 -22 22 -33
22 -162 0 -129 -2 -140 -22 -162 l-21 -23 83 0 83 0 -21 23 c-20 22 -22 33
-22 166 l0 143 83 -3 c67 -3 88 -8 116 -28 l34 -25 -7 29 c-4 15 -12 40 -19
54 -11 25 -15 26 -67 20z"/>
<path d="M2085 1214 c-124 -64 -156 -233 -61 -318 76 -67 236 -59 302 15 82
92 38 264 -79 308 -41 16 -127 13 -162 -5z m122 -34 c80 -29 98 -203 26 -260
-36 -28 -103 -27 -130 3 -34 37 -43 63 -43 124 0 109 60 163 147 133z"/>
<path d="M2408 1208 c21 -23 22 -33 22 -170 0 -117 -3 -148 -15 -158 -29 -24
-15 -30 68 -30 l82 1 -27 22 -28 23 0 142 0 142 55 0 c46 0 60 -4 80 -25 45
-44 28 -125 -26 -125 -35 0 -47 22 -29 55 23 43 -16 63 -44 23 -42 -60 -1
-128 76 -128 100 0 155 85 112 175 -25 54 -69 68 -219 73 l-130 4 23 -24z"/>
<path d="M2900 1219 c-32 -13 -87 -66 -106 -101 -8 -15 -14 -55 -14 -90 0 -51
5 -71 25 -100 51 -76 182 -102 275 -55 135 68 129 266 -11 337 -42 22 -126 26
-169 9z m151 -68 c51 -56 47 -188 -8 -230 -41 -33 -102 -28 -139 10 -27 29
-29 35 -29 114 0 69 3 87 20 105 44 49 113 50 156 1z"/>
<path d="M3273 1205 c26 -23 27 -28 27 -114 0 -60 -5 -104 -16 -131 -16 -40
-46 -66 -64 -55 -5 3 -14 -11 -19 -32 -19 -68 -14 -76 29 -43 22 17 42 20 180
20 151 0 156 -1 194 -26 33 -22 37 -23 33 -8 -3 11 -9 35 -12 54 -6 34 -8 36
-41 32 l-34 -4 0 140 c0 126 2 142 21 166 l20 26 -173 0 -173 -1 28 -24z m205
-172 l-3 -138 -83 -3 -83 -3 15 30 c17 32 35 140 36 209 l0 42 60 0 61 0 -3
-137z"/>
</g>
</svg>
